<?xml version="1.0" encoding="UTF-8" standalone="no"?>
<svg
   xmlns:dc="http://purl.org/dc/elements/1.1/"
   xmlns:cc="http://creativecommons.org/ns#"
   xmlns:rdf="http://www.w3.org/1999/02/22-rdf-syntax-ns#"
   xmlns:svg="http://www.w3.org/2000/svg"
   xmlns="http://www.w3.org/2000/svg"
   viewBox="0 0 1122.8533 793.32001"
   height="793.32001"
   width="1122.8533"
   xml:space="preserve"
   id="svg2"
   version="1.1"><metadata
     id="metadata8"><rdf:RDF><cc:Work
         rdf:about=""><dc:format>image/svg+xml</dc:format><dc:type
           rdf:resource="http://purl.org/dc/dcmitype/StillImage" /></cc:Work></rdf:RDF></metadata><defs
     id="defs6" /><g
     transform="matrix(1.3333333,0,0,-1.3333333,0,793.32)"
     id="g10"><g
       transform="scale(0.1)"
       id="g12"><path
         id="path140"
         style="fill:#432b0e;fill-opacity:1;fill-rule:nonzero;stroke:none"
         d="m 2086.91,3583.74 c 0.68,0.02 1.36,0.06 2.06,0.07 -0.55,0.31 -1.01,0.69 -1.57,1 -0.19,-0.34 -0.32,-0.73 -0.49,-1.07 z m 879.86,-29.23 c -9.75,-0.61 -19.44,-0.79 -28.96,-0.07 -40.03,2.99 -76.55,20.43 -112.27,41.8 -38.58,23.12 -78.21,48.5 -120.3,64.84 42.64,1.42 78.65,-12.33 122,-32.68 45.68,-21.42 83.95,-47.15 129.22,-64.75 6.86,-2.66 13.86,-5.03 20.92,-7.24 -3.51,-0.71 -7.04,-1.4 -10.61,-1.9 z m -643.86,25.33 c -45.3,-21.25 -82.48,-35.48 -127.64,-32.56 -23.29,1.53 -46.32,5.9 -68.96,12.63 24.28,9.29 47.46,20.26 67.91,32.65 4.45,2.92 3.29,6.07 -2.63,5.59 -11.4,-0.89 -26.03,-3.11 -35.92,-7.77 -16.72,-9.06 -33.8,-16.85 -51.15,-23.27 -17.34,6.42 -34.41,14.21 -51.12,23.27 -9.91,4.66 -24.49,6.88 -35.93,7.77 -5.94,0.48 -7.07,-2.67 -2.61,-5.59 20.45,-12.39 43.62,-23.36 67.89,-32.65 -22.64,-6.73 -45.67,-11.1 -68.96,-12.63 -45.17,-2.92 -82.35,11.31 -127.63,32.56 -15.51,7.28 -30.11,15.03 -44.5,22.77 16.11,8.76 32.5,17.59 49.96,25.79 45.31,21.25 82.49,35.5 127.65,32.58 22.22,-1.46 44.22,-5.56 65.86,-11.78 -25.13,-9.48 -49.16,-20.73 -70.27,-33.52 -4.46,-2.92 -3.33,-6.06 2.61,-5.57 11.44,0.88 26.02,3.12 35.93,7.77 17.59,9.52 35.58,17.63 53.86,24.22 18.29,-6.59 36.28,-14.7 53.88,-24.22 9.9,-4.65 24.49,-6.89 35.94,-7.77 5.94,-0.49 7.07,2.65 2.6,5.57 -21.11,12.79 -45.15,24.04 -70.29,33.52 21.65,6.22 43.64,10.32 65.88,11.78 45.16,2.92 82.34,-11.33 127.64,-32.58 16.49,-7.74 32.02,-16.04 47.27,-24.32 -15.28,-8.23 -30.78,-16.5 -47.27,-24.24 z m -939.4,16.4 c -35.71,-21.37 -72.23,-38.81 -112.27,-41.8 -9.49,-0.72 -19.2,-0.54 -28.98,0.07 -2.39,0.34 -4.74,0.85 -7.11,1.28 7.75,2.37 15.43,4.94 22.94,7.86 45.26,17.6 83.54,43.33 129.21,64.75 41.58,19.51 76.4,32.95 116.78,32.78 -42.19,-16.34 -81.92,-41.76 -120.57,-64.94 z m 2493.67,3.95 c -11.42,-0.95 -26.03,-3.25 -35.92,-7.92 -45.12,-24.69 -92.85,-40.25 -141.68,-43.62 -45.15,-3.11 -82.41,10.99 -127.78,32.03 -36.82,17.11 -69.06,36.85 -103.8,53.06 -7.03,3.32 -14.14,6.36 -21.53,9.36 -1.41,0.61 -2.66,1.3 -4.1,1.83 -1.24,0.5 -2.56,0.81 -3.76,1.25 -38.99,15.28 -80.79,26.53 -119.67,31.21 -27.59,3.34 -62.19,1.66 -89.45,-4.37 -57.44,-12.73 -109.83,-47.31 -160.39,-77.85 -18.7,-11.29 -37.7,-21.22 -57.3,-28.69 -20.51,7.62 -40.35,18.05 -59.91,29.76 -50.69,30.38 -103.21,64.75 -160.7,77.26 -27.27,5.91 -61.9,7.45 -89.51,4.01 -10.42,-1.29 -21.13,-3.18 -31.9,-5.32 -1.65,0.4 -3.27,0.95 -4.93,1.31 -27.25,5.91 -61.89,7.45 -89.49,4.01 -38.82,-4.81 -80.6,-16.25 -119.51,-31.68 -1.21,-0.43 -2.52,-0.75 -3.74,-1.23 -1.44,-0.57 -2.71,-1.27 -4.13,-1.85 -7.34,-3.04 -14.44,-6.11 -21.46,-9.47 -7.52,-3.53 -14.88,-7.29 -22.23,-11.09 -37.36,21.98 -76.11,42.31 -117.48,51.31 -27.21,5.91 -61.87,7.45 -89.48,4.01 -29.1,-3.61 -60.03,-10.74 -90.07,-20.52 -30.05,9.78 -60.99,16.91 -90.08,20.52 -27.58,3.44 -62.22,1.9 -89.5,-4.01 -42.26,-9.2 -81.83,-30.22 -119.95,-52.77 -8.31,4.34 -16.66,8.55 -25.17,12.55 -7.04,3.36 -14.12,6.43 -21.47,9.47 -1.44,0.58 -2.7,1.28 -4.14,1.85 -1.22,0.48 -2.55,0.8 -3.72,1.23 -38.94,15.43 -80.71,26.87 -119.55,31.68 -27.56,3.44 -62.23,1.9 -89.5,-4.01 -0.85,-0.19 -1.67,-0.48 -2.52,-0.67 -9.72,1.86 -19.37,3.51 -28.8,4.68 -27.61,3.44 -62.26,1.9 -89.51,-4.01 -57.52,-12.51 -110.01,-46.88 -160.7,-77.26 -20.46,-12.25 -41.22,-23.1 -62.73,-30.78 -20.54,7.55 -40.41,17.91 -59.95,29.71 -50.57,30.54 -102.94,65.12 -160.396,77.85 -27.277,6.03 -61.859,7.71 -89.469,4.37 -38.855,-4.68 -80.691,-15.93 -119.671,-31.21 -1.2,-0.44 -2.489,-0.75 -3.75,-1.25 -1.411,-0.53 -2.692,-1.22 -4.11,-1.83 -7.359,-3 -14.508,-6.04 -21.519,-9.36 -34.754,-16.21 -66.992,-35.95 -103.813,-53.06 -45.355,-21.04 -82.64,-35.14 -127.785,-32.03 -48.836,3.37 -96.551,18.93 -141.699,43.62 -9.86,4.67 -24.492,6.97 -35.879,7.92 -5.941,0.47 -7.098,-2.64 -2.609,-5.56 51.808,-31.71 121.089,-54.73 182.21,-62.55 27.586,-3.53 62.254,-2.14 89.504,3.68 57.555,12.3 110.211,46.45 161.004,76.61 35.785,21.23 72.371,38.5 112.442,41.4 31.375,2.22 64.258,-1.71 98.535,-17.61 65.525,-30.34 121.565,-59.58 158.045,-73.55 7.46,-2.86 15.24,-5.38 23.16,-7.72 -1.26,-0.13 -2.5,-0.36 -3.77,-0.45 -31.35,-2.38 -63.95,2.12 -98.66,17.21 -4.94,2.17 -15.06,4.06 -22.38,4.06 -10.04,0 -16.39,-3.42 -11.93,-5.74 53.92,-27.77 116.21,-34.1 175.51,-24.16 35.03,-6.09 72.15,-7.27 107.69,-2.6 32.31,2.87 63.78,9.88 91.69,20.44 36.52,13.87 92.69,42.88 158.31,72.96 11.25,5.16 22.33,8.93 33.26,11.73 24.86,-7.4 49.25,-17.65 72.92,-30.46 9.9,-4.65 24.49,-6.89 35.91,-7.77 5.94,-0.49 7.07,2.65 2.63,5.57 -24.44,14.81 -52.77,27.58 -82.23,37.86 12.27,1.17 24.32,1.16 36.15,0.26 40.04,-2.99 76.55,-20.42 112.27,-41.8 5.23,-3.14 10.5,-6.33 15.78,-9.52 -3.44,-2.09 -6.9,-4.19 -10.32,-6.24 -35.71,-21.37 -72.23,-38.81 -112.24,-41.8 -31.37,-2.38 -63.94,2.12 -98.65,17.21 -4.97,2.17 -15.11,4.06 -22.42,4.06 -10.03,0 -16.37,-3.42 -11.92,-5.74 74.22,-38.23 164.37,-35.99 240.66,-6.32 15.7,6.11 30.55,13.23 45.18,20.77 36.47,-21.34 74.29,-40.9 114.6,-49.64 27.28,-5.93 61.91,-7.48 89.5,-4.04 29.98,3.72 61.91,11.12 92.82,21.36 30.89,-10.24 62.81,-17.64 92.8,-21.36 27.61,-3.44 62.27,-1.89 89.48,4.04 41.27,8.95 79.92,29.21 117.2,51.13 15.57,-8.11 31.35,-15.75 48.1,-22.26 76.28,-29.67 166.43,-31.91 240.64,6.32 4.47,2.32 -1.87,5.74 -11.9,5.74 -7.34,0 -17.46,-1.89 -22.39,-4.06 -34.71,-15.09 -67.32,-19.59 -98.67,-17.21 -40.03,2.99 -76.54,20.43 -112.24,41.8 -4.34,2.6 -8.7,5.25 -13.06,7.88 4.36,2.64 8.72,5.29 13.06,7.88 35.7,21.38 72.21,38.81 112.24,41.8 13.12,1 26.54,0.82 40.21,-0.78 -28.96,-10.19 -56.78,-22.77 -80.81,-37.34 -4.47,-2.92 -3.31,-6.06 2.65,-5.57 11.38,0.88 25.99,3.12 35.88,7.77 22.84,12.36 46.32,22.39 70.26,29.72 10.03,-2.73 20.18,-6.27 30.48,-10.99 65.61,-30.08 121.76,-59.09 158.28,-72.96 27.89,-10.56 59.38,-17.57 91.66,-20.44 36.45,-4.78 74.54,-3.43 110.35,3.06 60.15,-10.63 123.57,-4.52 178.36,23.7 4.43,2.32 -1.9,5.74 -11.95,5.74 -7.3,0 -17.42,-1.89 -22.39,-4.06 -34.68,-15.09 -67.28,-19.59 -98.62,-17.21 -2.56,0.19 -5.06,0.6 -7.59,0.91 7.35,2.21 14.55,4.6 21.51,7.26 36.46,13.97 92.52,43.21 158.02,73.55 34.27,15.9 67.14,19.83 98.55,17.61 40.05,-2.9 76.62,-20.17 112.41,-41.4 50.8,-30.16 103.44,-64.31 161.03,-76.61 27.25,-5.82 61.91,-7.21 89.5,-3.68 61.15,7.82 130.41,30.84 182.23,62.55 4.44,2.92 3.31,6.03 -2.63,5.56" /><path
/></g></g></svg>
